<svg xmlns="http://www.w3.org/2000/svg" width="439" height="54">
    <path fill="#303F5B" fill-rule="evenodd" d="M436.022 30.609h-17.213c.676 4.472 3.848 6.968 7.904 6.968 2.652 0 4.733-.936 6.501-2.392.468-.364.884-.572 1.612-.572 1.404 0 2.496 1.092 2.496 2.548 0 .78-.364 1.456-.832 1.924-2.496 2.237-5.616 3.641-9.881 3.641-7.956 0-14.092-5.773-14.092-14.249v-.104c0-7.852 5.564-14.3 13.416-14.3 8.737 0 13.053 7.176 13.053 13.52 0 1.768-1.352 3.016-2.964 3.016zm-10.141-11.388c-3.848 0-6.552 2.964-7.124 7.228h14.093c-.416-4.056-2.808-7.228-6.969-7.228zm-21.428 23.141c-1.768 0-3.172-1.352-3.172-3.121v-1.716c-2.028 2.86-4.888 5.149-9.36 5.149-6.449 0-12.741-5.149-12.741-14.249v-.104c0-9.1 6.188-14.248 12.741-14.248 4.524 0 7.384 2.236 9.36 4.836V7a3.096 3.096 0 0 1 3.12-3.12c1.768 0 3.172 1.352 3.172 3.12v32.241a3.096 3.096 0 0 1-3.12 3.121zm-3.068-14.041c0-5.304-3.744-8.788-7.956-8.788-4.316 0-7.905 3.328-7.905 8.788v.104c0 5.304 3.641 8.788 7.905 8.788 4.212 0 7.956-3.536 7.956-8.788v-.104zm-42.224 14.041c-1.716 0-3.172-1.352-3.172-3.121v-1.404c-1.768 2.6-4.316 4.837-8.58 4.837-6.188 0-9.776-4.161-9.776-10.557V17.505c0-1.768 1.404-3.172 3.12-3.172a3.152 3.152 0 0 1 3.172 3.172v12.74c0 4.264 2.132 6.656 5.876 6.656 3.64 0 6.188-2.496 6.188-6.76V17.505a3.152 3.152 0 0 1 3.172-3.172c1.716 0 3.173 1.404 3.173 3.172v21.736c0 1.716-1.404 3.121-3.173 3.121zm-39.02.312c-4.576 0-7.436-2.289-9.361-4.837v1.404c0 1.716-1.404 3.121-3.172 3.121a3.13 3.13 0 0 1-3.12-3.121V7c0-1.768 1.352-3.12 3.12-3.12S310.78 5.232 310.78 7v12.221c2.029-2.86 4.889-5.148 9.361-5.148 6.448 0 12.74 5.096 12.74 14.248v.104c0 9.1-6.24 14.249-12.74 14.249zm6.344-14.353c0-5.304-3.588-8.788-7.852-8.788s-8.008 3.536-8.008 8.788v.104c0 5.252 3.744 8.788 8.008 8.788 4.316 0 7.852-3.38 7.852-8.788v-.104zm-30.238.936h-9.776c-1.664 0-3.068-1.404-3.068-3.068 0-1.716 1.404-3.12 3.068-3.12h9.776c1.664 0 3.068 1.404 3.068 3.12 0 1.664-1.404 3.068-3.068 3.068zm-22.765 1.872v8.112c0 1.716-1.404 3.121-3.172 3.121a3.096 3.096 0 0 1-3.12-3.121V17.505c0-1.768 1.352-3.172 3.12-3.172a3.152 3.152 0 0 1 3.172 3.172v2.808c1.456-3.432 4.16-6.032 6.916-6.032 1.976 0 3.12 1.3 3.12 3.12 0 1.664-1.092 2.756-2.496 3.016-4.472.78-7.54 4.212-7.54 10.712zm-14.101-.52h-17.213c.676 4.472 3.848 6.968 7.904 6.968 2.652 0 4.732-.936 6.5-2.392.468-.364.884-.572 1.613-.572 1.404 0 2.496 1.092 2.496 2.548 0 .78-.364 1.456-.832 1.924-2.497 2.237-5.617 3.641-9.881 3.641-7.956 0-14.092-5.773-14.092-14.249v-.104c0-7.852 5.564-14.3 13.416-14.3 8.737 0 13.053 7.176 13.053 13.52 0 1.768-1.352 3.016-2.964 3.016zM249.24 19.221c-3.848 0-6.552 2.964-7.124 7.228h14.092c-.416-4.056-2.808-7.228-6.968-7.228zm-29.598 23.453c-4.576 0-7.436-2.289-9.36-4.837v1.404c0 1.716-1.404 3.121-3.172 3.121a3.13 3.13 0 0 1-3.12-3.121V7c0-1.768 1.352-3.12 3.12-3.12s3.172 1.352 3.172 3.12v12.221c2.028-2.86 4.888-5.148 9.36-5.148 6.449 0 12.741 5.096 12.741 14.248v.104c0 9.1-6.24 14.249-12.741 14.249zm6.345-14.353c0-5.304-3.589-8.788-7.853-8.788-4.264 0-8.008 3.536-8.008 8.788v.104c0 5.252 3.744 8.788 8.008 8.788 4.317 0 7.853-3.38 7.853-8.788v-.104zm-29.806 2.288h-17.213c.676 4.472 3.848 6.968 7.905 6.968 2.652 0 4.732-.936 6.5-2.392.468-.364.884-.572 1.612-.572 1.404 0 2.496 1.092 2.496 2.548 0 .78-.364 1.456-.832 1.924-2.496 2.237-5.616 3.641-9.88 3.641-7.957 0-14.093-5.773-14.093-14.249v-.104c0-7.852 5.564-14.3 13.417-14.3 8.736 0 13.052 7.176 13.052 13.52 0 1.768-1.352 3.016-2.964 3.016zM186.04 19.221c-3.848 0-6.552 2.964-7.124 7.228h14.093c-.416-4.056-2.808-7.228-6.969-7.228zm-32.983 31.305c-3.848 0-7.28-.832-10.608-2.444-1.092-.416-1.768-1.3-1.768-2.496 0-1.404 1.196-2.6 2.652-2.6.468 0 .832.104 1.144.26 2.496 1.404 5.252 2.184 8.424 2.184 5.617 0 8.685-2.912 8.685-8.425v-2.132c-2.288 2.964-5.148 5.045-9.673 5.045-6.448 0-12.48-4.785-12.48-12.845v-.104c0-8.112 6.084-12.896 12.48-12.896 4.629 0 7.489 2.132 9.621 4.68v-1.3a3.13 3.13 0 0 1 3.12-3.12 3.152 3.152 0 0 1 3.172 3.172v18.98c0 4.628-1.196 8.061-3.484 10.349-2.496 2.496-6.344 3.692-11.285 3.692zm8.581-23.609c0-4.472-3.692-7.54-8.061-7.54-4.368 0-7.8 3.016-7.8 7.54v.104c0 4.472 3.484 7.54 7.8 7.54 4.369 0 8.061-3.068 8.061-7.54v-.104zm-26.728-6.864h-4.94v13.468c0 2.444 1.248 3.432 3.38 3.432.728 0 1.352-.156 1.56-.156 1.404 0 2.652 1.144 2.652 2.6 0 1.144-.78 2.081-1.664 2.445a12.516 12.516 0 0 1-4.316.728c-4.629 0-7.905-2.029-7.905-8.061V20.053h-1.04a2.685 2.685 0 0 1-2.704-2.704 2.685 2.685 0 0 1 2.704-2.704h1.04V9.964c0-1.716 1.404-3.12 3.172-3.12a3.13 3.13 0 0 1 3.121 3.12v4.681h4.94c1.508 0 2.756 1.196 2.756 2.704 0 1.508-1.248 2.704-2.756 2.704zm-21.132 22.309c-1.82 0-3.068-1.249-3.068-2.653v-1.04c-1.873 2.237-4.733 4.005-8.945 4.005-5.148 0-9.724-2.965-9.724-8.477v-.104c0-5.928 4.628-8.84 11.336-8.84 3.068 0 5.252.468 7.385 1.144v-.676c0-3.9-2.393-5.98-6.813-5.98-2.392 0-4.368.416-6.084 1.092a3.533 3.533 0 0 1-.988.156c-1.456 0-2.652-1.144-2.652-2.6 0-1.144.78-2.132 1.716-2.496 2.6-.988 5.252-1.612 8.84-1.612 4.109 0 7.177 1.092 9.101 3.068 2.028 1.976 2.964 4.888 2.964 8.476v13.52c0 1.717-1.352 3.017-3.068 3.017zm-2.912-12.013c-1.613-.624-3.745-1.092-6.241-1.092-4.056 0-6.448 1.716-6.448 4.576v.104c0 2.652 2.34 4.16 5.356 4.16 4.161 0 7.333-2.392 7.333-5.876v-1.872zm-30.083.78v8.112c0 1.716-1.404 3.121-3.172 3.121a3.096 3.096 0 0 1-3.12-3.121V17.505c0-1.768 1.352-3.172 3.12-3.172a3.152 3.152 0 0 1 3.172 3.172v2.808c1.457-3.432 4.161-6.032 6.917-6.032 1.976 0 3.12 1.3 3.12 3.12 0 1.664-1.092 2.756-2.496 3.016-4.472.78-7.541 4.212-7.541 10.712z"/>
    <path fill="#73CBD1" fill-rule="evenodd" d="M368.323 38.253v.52c0 2.029 1.56 3.589 3.692 3.589 2.08 0 3.64-1.56 3.64-3.589v-.52c0-2.028-1.56-3.588-3.64-3.588-2.132 0-3.692 1.56-3.692 3.588z"/>
    <path fill="#F78460" fill-rule="evenodd" d="M28 54h-2a8 8 0 0 1-8-8V36H8a8 8 0 0 1-8-8v-2a8 8 0 0 1 8-8h20a8 8 0 0 1 8 8v20a8 8 0 0 1-8 8z"/>
    <path fill="#73CBD1" fill-rule="evenodd" d="M46 36H26a8 8 0 0 1-8-8V8a8 8 0 0 1 8-8h2a8 8 0 0 1 8 8v10h10a8 8 0 0 1 8 8v2a8 8 0 0 1-8 8z"/>
</svg>
